<svg width="54" height="54" viewBox="0 0 54 54" fill="none" xmlns="http://www.w3.org/2000/svg">
<path fill-rule="evenodd" clip-rule="evenodd" d="M26.6573 4.43335C14.4457 4.43335 4.54824 14.3308 4.54824 26.5424C4.54824 36.309 10.8813 44.5971 19.6681 47.5231C20.7742 47.7226 21.1732 47.0421 21.1732 46.4569C21.1732 45.9316 21.1555 44.5395 21.1489 42.6974C14.9976 44.0319 13.6986 39.7315 13.6986 39.7315C12.6967 37.1779 11.2448 36.4974 11.2448 36.4974C9.23871 35.1253 11.3977 35.1563 11.3977 35.1563C13.6188 35.3115 14.7826 37.4351 14.7826 37.4351C16.7554 40.8133 19.9607 39.8379 21.2154 39.2727C21.4171 37.8429 21.9934 36.8676 22.6229 36.3157C17.7152 35.7593 12.5548 33.8618 12.5548 25.3875C12.5548 22.978 13.4171 21.0007 14.8247 19.4579C14.6008 18.8971 13.8361 16.6472 15.0442 13.6059C15.0442 13.6059 16.8995 13.0096 21.1223 15.8691C22.9257 15.3785 24.7861 15.1281 26.6551 15.1243C28.5241 15.1274 30.3845 15.3778 32.1879 15.8691C36.4128 13.0074 38.266 13.6059 38.266 13.6059C39.474 16.6472 38.7159 18.8971 38.4854 19.4579C39.9041 21.0007 40.7553 22.9758 40.7553 25.3875C40.7553 33.884 35.5904 35.7504 30.665 36.2979C31.4519 36.9807 32.1613 38.3284 32.1613 40.3899C32.1613 43.3469 32.1347 45.7321 32.1347 46.4569C32.1347 47.0488 32.5292 47.7359 33.6575 47.5187C42.4399 44.5883 48.7663 36.3068 48.7663 26.5424C48.7663 14.3308 38.8689 4.43335 26.6573 4.43335Z" fill="#CCCCCC"/>
</svg>
