<svg width="54" height="54" viewBox="0 0 54 54" fill="none" xmlns="http://www.w3.org/2000/svg">
<path d="M46.4326 18.4094C46.4103 16.7306 46.096 15.0684 45.5038 13.4973C44.9904 12.1721 44.2061 10.9685 43.2011 9.96357C42.1961 8.9586 40.9926 8.17432 39.6674 7.66083C38.1164 7.07864 36.478 6.76383 34.8217 6.72983C32.6893 6.63451 32.0132 6.60791 26.6001 6.60791C21.187 6.60791 20.4932 6.60791 18.3763 6.72983C16.7208 6.76408 15.0831 7.07888 13.5329 7.66083C12.2074 8.17396 11.0037 8.95812 9.99868 9.96313C8.99367 10.9681 8.20951 12.1719 7.69638 13.4973C7.11302 15.0471 6.7989 16.6851 6.7676 18.3407C6.67228 20.4754 6.64346 21.1515 6.64346 26.5646C6.64346 31.9777 6.64346 32.6693 6.7676 34.7884C6.80085 36.4465 7.1134 38.0824 7.69638 39.6362C8.21038 40.9613 8.99512 42.1645 10.0005 43.1691C11.0058 44.1737 12.2097 44.9575 13.5351 45.4705C15.0811 46.0761 16.719 46.4134 18.3785 46.468C20.5131 46.5633 21.1892 46.5921 26.6023 46.5921C32.0154 46.5921 32.7092 46.5921 34.8262 46.468C36.4824 46.4354 38.1209 46.1213 39.6718 45.5392C40.9967 45.0251 42.1999 44.2407 43.2048 43.2358C44.2097 42.2309 44.9942 41.0276 45.5083 39.7027C46.0913 38.1511 46.4038 36.5152 46.4371 34.8549C46.5324 32.7225 46.5612 32.0464 46.5612 26.6311C46.5568 21.218 46.5568 20.5308 46.4326 18.4094ZM26.5868 36.8011C20.9254 36.8011 16.3392 32.2148 16.3392 26.5535C16.3392 20.8921 20.9254 16.3058 26.5868 16.3058C29.3047 16.3058 31.9112 17.3855 33.833 19.3073C35.7548 21.2291 36.8345 23.8356 36.8345 26.5535C36.8345 29.2713 35.7548 31.8779 33.833 33.7997C31.9112 35.7215 29.3047 36.8011 26.5868 36.8011ZM37.2423 18.3163C36.9284 18.3166 36.6176 18.255 36.3275 18.135C36.0375 18.0151 35.774 17.8391 35.552 17.6171C35.3301 17.3952 35.154 17.1316 35.0341 16.8416C34.9141 16.5515 34.8525 16.2407 34.8528 15.9268C34.8528 15.6131 34.9145 15.3025 35.0346 15.0128C35.1546 14.723 35.3305 14.4597 35.5523 14.2379C35.7741 14.0161 36.0374 13.8402 36.3272 13.7201C36.617 13.6001 36.9276 13.5383 37.2412 13.5383C37.5549 13.5383 37.8655 13.6001 38.1552 13.7201C38.445 13.8402 38.7083 14.0161 38.9301 14.2379C39.1519 14.4597 39.3278 14.723 39.4479 15.0128C39.5679 15.3025 39.6297 15.6131 39.6297 15.9268C39.6297 17.2479 38.5612 18.3163 37.2423 18.3163Z" fill="#CCCCCC"/>
<path d="M26.587 33.21C30.2634 33.21 33.2437 30.2297 33.2437 26.5534C33.2437 22.877 30.2634 19.8967 26.587 19.8967C22.9106 19.8967 19.9304 22.877 19.9304 26.5534C19.9304 30.2297 22.9106 33.21 26.587 33.21Z" fill="#CCCCCC"/>
</svg>
