<svg width="54" height="54" viewBox="0 0 54 54" fill="none" xmlns="http://www.w3.org/2000/svg">
<path d="M20.0387 47.747C22.1667 48.3899 24.3168 48.7667 26.6 48.7667C32.479 48.7667 38.1171 46.4313 42.2742 42.2742C46.4312 38.1172 48.7667 32.479 48.7667 26.6C48.7667 23.689 48.1933 20.8066 47.0793 18.1172C45.9653 15.4278 44.3326 12.9842 42.2742 10.9258C40.2158 8.86745 37.7722 7.23467 35.0828 6.12069C32.3934 5.00671 29.511 4.43335 26.6 4.43335C23.689 4.43335 20.8066 5.00671 18.1172 6.12069C15.4278 7.23467 12.9842 8.86745 10.9258 10.9258C6.76873 15.0829 4.43332 20.7211 4.43332 26.6C4.43332 36.0208 10.3518 44.1117 18.7087 47.3037C18.5092 45.5747 18.3097 42.7152 18.7087 40.7423L21.2578 29.792C21.2578 29.792 20.615 28.5063 20.615 26.467C20.615 23.408 22.5213 21.1248 24.6937 21.1248C26.6 21.1248 27.4867 22.5214 27.4867 24.3169C27.4867 26.2232 26.2232 28.9497 25.5803 31.5653C25.2035 33.7377 26.733 35.644 28.9497 35.644C32.8953 35.644 35.9543 31.4324 35.9543 25.4917C35.9543 20.1717 32.1417 16.5364 26.6665 16.5364C20.4155 16.5364 16.7358 21.1914 16.7358 26.0902C16.7358 27.9965 17.3565 29.925 18.3762 31.1885C18.5757 31.3215 18.5757 31.4988 18.5092 31.8313L17.8663 34.2475C17.8663 34.6243 17.6225 34.7574 17.2457 34.4914C14.4083 33.25 12.768 29.2157 12.768 25.9572C12.768 18.9525 17.7333 12.5907 27.3093 12.5907C34.9347 12.5907 40.8753 18.0659 40.8753 25.3365C40.8753 32.9619 36.1538 39.0798 29.393 39.0798C27.2428 39.0798 25.137 37.9272 24.3833 36.575L22.8982 41.8285C22.3883 43.7349 20.9918 46.284 20.0387 47.8135V47.747Z" fill="#CCCCCC"/>
</svg>
