<svg width="54" height="54" viewBox="0 0 54 54" fill="none" xmlns="http://www.w3.org/2000/svg">
<path d="M13.699 44.3334C16.3678 44.3334 18.5313 42.1699 18.5313 39.501C18.5313 36.8322 16.3678 34.6687 13.699 34.6687C11.0302 34.6687 8.86666 36.8322 8.86666 39.501C8.86666 42.1699 11.0302 44.3334 13.699 44.3334Z" fill="#CCCCCC"/>
<path d="M8.86666 9.84204V16.1152C24.4498 16.1152 37.0848 28.7502 37.0848 44.3334H43.358C43.358 25.2922 27.9078 9.84204 8.86666 9.84204ZM8.86666 22.3884V28.6615C17.5117 28.6615 24.5385 35.6884 24.5385 44.3334H30.8117C30.8117 32.2082 20.9918 22.3884 8.86666 22.3884Z" fill="#CCCCCC"/>
</svg>
