<svg width="54" height="54" viewBox="0 0 54 54" fill="none" xmlns="http://www.w3.org/2000/svg">
<path d="M43.5198 17.7268C43.5486 18.1148 43.5486 18.5005 43.5486 18.8862C43.5486 30.6899 34.5645 44.2914 18.1456 44.2914C13.0872 44.2914 8.38785 42.8262 4.43332 40.2814C5.15152 40.3634 5.84312 40.3923 6.59014 40.3923C10.6089 40.402 14.5139 39.0581 17.6757 36.5774C15.8124 36.5436 14.0062 35.9289 12.5092 34.819C11.0122 33.709 9.89914 32.1593 9.3255 30.3862C9.87745 30.4682 10.4316 30.5237 11.0124 30.5237C11.8126 30.5237 12.6173 30.4128 13.3643 30.22C11.3421 29.8117 9.52384 28.7156 8.21854 27.1182C6.91325 25.5207 6.20154 23.5204 6.20444 21.4575V21.3467C7.39479 22.0094 8.77577 22.424 10.2388 22.4794C9.01315 21.6649 8.00818 20.5598 7.31352 19.2625C6.61886 17.9653 6.25611 16.5162 6.25764 15.0447C6.25764 13.3866 6.69875 11.866 7.47237 10.5404C9.71594 13.3002 12.5142 15.558 15.6859 17.1675C18.8575 18.777 22.3319 19.7024 25.884 19.8837C25.7466 19.2187 25.6623 18.5293 25.6623 17.8377C25.6618 16.665 25.8923 15.5036 26.3408 14.4201C26.7893 13.3366 27.447 12.352 28.2762 11.5228C29.1054 10.6936 30.09 10.0359 31.1735 9.58741C32.257 9.13891 33.4184 8.90835 34.5911 8.90894C37.1624 8.90894 39.4832 9.98624 41.1147 11.7285C43.1136 11.342 45.0306 10.6123 46.7805 9.57172C46.1142 11.635 44.7185 13.3846 42.8548 14.4927C44.6277 14.2905 46.3603 13.8243 47.9953 13.1095C46.7742 14.8897 45.261 16.4508 43.5198 17.7268Z" fill="#CCCCCC"/>
</svg>
